<svg width="11" height="11" viewBox="0 0 11 11" fill="none" xmlns="http://www.w3.org/2000/svg">
<path d="M10.0995 7.78728L9.45895 0.0439668L1.69306 0.289181C1.61129 0.281022 1.52951 0.290372 1.45326 0.316601C1.37701 0.342829 1.30807 0.385323 1.2511 0.441205C1.19413 0.497087 1.15046 0.565052 1.12306 0.6405C1.09565 0.715948 1.08514 0.797117 1.09225 0.878512C1.09936 0.959907 1.12391 1.03963 1.16424 1.11228C1.20457 1.18493 1.25975 1.24881 1.32603 1.2996C1.39231 1.35039 1.46816 1.3869 1.54842 1.40666C1.62869 1.42642 1.7115 1.42897 1.79126 1.41414L7.61137 1.23944L0.519385 9.19056C0.421062 9.30079 0.372609 9.4474 0.384684 9.59813C0.39676 9.74886 0.468374 9.89137 0.583774 9.9943C0.699174 10.0972 0.848907 10.1522 1.00003 10.147C1.15116 10.1418 1.29129 10.077 1.38962 9.96676L8.4816 2.01564L8.97067 7.81779C8.98328 7.96859 9.05543 8.11094 9.17125 8.21354C9.28706 8.31614 9.43704 8.37058 9.58821 8.36488C9.73938 8.35918 9.87934 8.29381 9.97731 8.18315C10.0753 8.07249 10.1232 7.9256 10.1106 7.77481L10.0995 7.78728Z" fill="black"/>
</svg>
