<svg width="16" height="18" viewBox="0 0 16 18" fill="none" xmlns="http://www.w3.org/2000/svg">
<path d="M12.5 1.5V3M3.5 1.5V3M1.25 6H14.75M0.875 9.18225C0.875 5.9145 0.875 4.28025 1.814 3.26475C2.753 2.25 4.265 2.25 7.2875 2.25H8.7125C11.735 2.25 13.247 2.25 14.186 3.2655C15.125 4.28025 15.125 5.9145 15.125 9.183V9.56775C15.125 12.8355 15.125 14.4697 14.186 15.4852C13.247 16.5 11.735 16.5 8.7125 16.5H7.2875C4.265 16.5 2.753 16.5 1.814 15.4845C0.875 14.4697 0.875 12.8355 0.875 9.567V9.18225Z" stroke="white" stroke-width="1.5" stroke-linecap="round" stroke-linejoin="round"/>
<path d="M5.75 11.25H10.25M5.75 11.25C5.75 10.725 7.2455 9.744 7.625 9.375M5.75 11.25C5.75 11.775 7.2455 12.7567 7.625 13.125" stroke="white" stroke-width="1.5" stroke-linecap="round" stroke-linejoin="round"/>
</svg>
