<svg width="15" height="16" viewBox="0 0 15 16" fill="none" xmlns="http://www.w3.org/2000/svg">
<path fill-rule="evenodd" clip-rule="evenodd" d="M13.4663 3.40733C13.642 3.59486 13.7408 3.84917 13.7408 4.11433C13.7408 4.3795 13.642 4.6338 13.4663 4.82133L6.43939 12.3167C6.34653 12.4157 6.23628 12.4943 6.11494 12.548C5.9936 12.6016 5.86354 12.6292 5.7322 12.6292C5.60086 12.6292 5.47081 12.6016 5.34947 12.548C5.22813 12.4943 5.11788 12.4157 5.02502 12.3167L1.53377 8.59333C1.44423 8.50108 1.3728 8.39074 1.32367 8.26874C1.27454 8.14673 1.24868 8.01551 1.24759 7.88273C1.24651 7.74995 1.27023 7.61827 1.31737 7.49538C1.36451 7.37248 1.43412 7.26083 1.52215 7.16694C1.61017 7.07304 1.71484 6.99879 1.83006 6.94851C1.94527 6.89823 2.06872 6.87293 2.1932 6.87408C2.31769 6.87523 2.4407 6.90282 2.55508 6.95523C2.66946 7.00764 2.77291 7.08382 2.85939 7.17933L5.73189 10.2433L12.14 3.40733C12.2271 3.31441 12.3305 3.24069 12.4442 3.19039C12.558 3.1401 12.68 3.11421 12.8031 3.11421C12.9263 3.11421 13.0483 3.1401 13.162 3.19039C13.2758 3.24069 13.3792 3.31441 13.4663 3.40733Z" fill="white"/>
</svg>
