<svg width="14" height="14" viewBox="0 0 14 14" fill="none" xmlns="http://www.w3.org/2000/svg">
<g clip-path="url(#clip0_1_483)">
<path d="M3.79175 3.62601V2.27851C3.79183 2.06096 3.8783 1.85235 4.03216 1.69855C4.18602 1.54474 4.39466 1.45834 4.61221 1.45834H11.7213C11.9389 1.45834 12.1476 1.54478 12.3014 1.69865C12.4553 1.85252 12.5417 2.0612 12.5417 2.2788V9.38818C12.5417 9.60567 12.4552 9.81424 12.3014 9.96804C12.1476 10.1218 11.9391 10.2083 11.7216 10.2083H10.3589" stroke="#074D35" stroke-linecap="round" stroke-linejoin="round"/>
<path d="M9.38821 3.79169H2.27825C2.06075 3.79184 1.85221 3.87835 1.69847 4.0322C1.54473 4.18605 1.45837 4.39465 1.45837 4.61215V11.7212C1.45837 11.9388 1.54481 12.1475 1.69868 12.3014C1.85255 12.4552 2.06123 12.5417 2.27883 12.5417H9.38821C9.60571 12.5416 9.81427 12.4552 9.96807 12.3014C10.1219 12.1476 10.2083 11.939 10.2084 11.7215V4.61156C10.2082 4.39411 10.1218 4.18562 9.96796 4.03189C9.81418 3.87816 9.60565 3.79176 9.38821 3.79169Z" stroke="#074D35" stroke-linejoin="round"/>
</g>
<defs>
<clipPath id="clip0_1_483">
<rect width="14" height="14" fill="white"/>
</clipPath>
</defs>
</svg>
