<svg width="13" height="14" viewBox="0 0 13 14" fill="none" xmlns="http://www.w3.org/2000/svg">
<path d="M2.83325 6.38888C2.83325 4.66066 2.83325 3.79594 3.37042 3.25938C3.90697 2.72221 4.7717 2.72221 6.49992 2.72221H8.33325C10.0615 2.72221 10.9262 2.72221 11.4628 3.25938C11.9999 3.79594 11.9999 4.66066 11.9999 6.38888V9.44444C11.9999 11.1727 11.9999 12.0374 11.4628 12.5739C10.9262 13.1111 10.0615 13.1111 8.33325 13.1111H6.49992C4.7717 13.1111 3.90697 13.1111 3.37042 12.5739C2.83325 12.0374 2.83325 11.1727 2.83325 9.44444V6.38888Z" stroke="black" stroke-width="1.5"/>
<path opacity="0.5" d="M2.83333 11.2778C2.3471 11.2778 1.88079 11.0846 1.53697 10.7408C1.19315 10.397 1 9.93067 1 9.44444V5.77777C1 3.47327 1 2.32072 1.71622 1.60511C2.43244 0.889497 3.58439 0.888885 5.88889 0.888885H8.33333C8.81956 0.888885 9.28588 1.08204 9.6297 1.42586C9.97351 1.76967 10.1667 2.23599 10.1667 2.72222" stroke="black" stroke-width="1.5"/>
</svg>
