<svg width="16" height="16" viewBox="0 0 16 16" fill="none" xmlns="http://www.w3.org/2000/svg">
<path d="M13.625 0.518799C13.1469 0.518799 12.6769 0.706299 12.3162 1.0663L6.125 7.23755L5.9875 7.37505L5.95 7.57067L5.51875 9.75817L5.325 10.6757L6.24188 10.4819L8.42938 10.0507L8.625 10.0132L8.7625 9.87567L14.9338 3.68442C15.1922 3.42505 15.3681 3.09499 15.4393 2.73582C15.5106 2.37665 15.4739 2.00444 15.3339 1.66608C15.194 1.32771 14.957 1.03833 14.6529 0.834395C14.3488 0.630456 13.9912 0.521081 13.625 0.520049V0.518799ZM13.625 1.7313C13.7719 1.7313 13.915 1.8063 14.055 1.94567C14.3337 2.22442 14.3337 2.52567 14.055 2.80505L8 8.8588L6.925 9.0738L7.14062 7.9988L13.1956 1.9438C13.335 1.80442 13.4781 1.72942 13.625 1.72942V1.7313ZM0.5 3.00005V15.5H13V7.25755L11.75 8.50755V14.25H1.75V4.25005H7.4925L8.7425 3.00005H0.5Z" fill="white"/>
</svg>
