<svg width="27" height="27" viewBox="0 0 27 27" fill="none" xmlns="http://www.w3.org/2000/svg">
<circle cx="13.2495" cy="13.2695" r="12.7695" fill="white"/>
<path d="M18.2464 8.17753C17.3321 7.70434 16.3423 7.36091 15.3111 7.16248C15.293 7.16276 15.2757 7.17099 15.263 7.18537C15.1393 7.43723 14.9949 7.7654 14.8987 8.01725C13.805 7.8342 12.6928 7.8342 11.5992 8.01725C11.5029 7.75777 11.3586 7.43723 11.228 7.18537C11.2211 7.17011 11.2005 7.16248 11.1799 7.16248C10.1488 7.36091 9.16577 7.70434 8.24465 8.17753C8.23777 8.17753 8.2309 8.18516 8.22402 8.19279C6.35429 11.299 5.83874 14.3212 6.09307 17.313C6.09307 17.3282 6.09995 17.3435 6.1137 17.3511C7.35102 18.3586 8.54023 18.9691 9.71569 19.3736C9.73631 19.3812 9.75693 19.3736 9.76381 19.3583C10.0388 18.9386 10.2862 18.4959 10.4993 18.0304C10.5131 17.9998 10.4993 17.9693 10.4718 17.9617C10.08 17.7938 9.70881 17.5954 9.34449 17.3664C9.31699 17.3511 9.31699 17.3053 9.33762 17.2824C9.41323 17.2214 9.48885 17.1527 9.56446 17.0916C9.57821 17.0764 9.59883 17.0764 9.61258 17.084C11.9772 18.2822 14.5275 18.2822 16.8647 17.084C16.8784 17.0764 16.899 17.0764 16.9128 17.0916C16.9884 17.1603 17.064 17.2214 17.1396 17.2901C17.1671 17.313 17.1671 17.3588 17.1328 17.374C16.7753 17.6106 16.3972 17.8014 16.0054 17.9693C15.9779 17.977 15.9711 18.0151 15.9779 18.038C16.1979 18.5036 16.4454 18.9462 16.7135 19.366C16.7341 19.3736 16.7547 19.3812 16.7753 19.3736C17.9576 18.9691 19.1469 18.3586 20.3842 17.3511C20.3979 17.3435 20.4048 17.3282 20.4048 17.313C20.7073 13.8557 19.903 10.8563 18.2739 8.19279C18.267 8.18516 18.2601 8.17753 18.2464 8.17753ZM10.8568 15.4889C10.1488 15.4889 9.55759 14.7639 9.55759 13.871C9.55759 12.978 10.135 12.253 10.8568 12.253C11.5854 12.253 12.1628 12.9857 12.156 13.871C12.156 14.7639 11.5786 15.4889 10.8568 15.4889ZM15.648 15.4889C14.9399 15.4889 14.3488 14.7639 14.3488 13.871C14.3488 12.978 14.9262 12.253 15.648 12.253C16.3766 12.253 16.954 12.9857 16.9472 13.871C16.9472 14.7639 16.3766 15.4889 15.648 15.4889Z" fill="#1B5774"/>
</svg>
