<svg width="27" height="27" viewBox="0 0 27 27" fill="none" xmlns="http://www.w3.org/2000/svg">
<circle cx="13.2492" cy="13.2695" r="12.7695" fill="white"/>
<path d="M20.4477 9.7896V18.3672C20.4477 18.9247 20.0413 19.3761 19.5394 19.3761H17.4191V13.6581L13.7854 16.6861L10.1516 13.6581V19.3767H8.03135C7.91202 19.3767 7.79386 19.3506 7.68363 19.2999C7.57339 19.2491 7.47324 19.1748 7.38889 19.081C7.30453 18.9873 7.23764 18.876 7.19203 18.7535C7.14641 18.631 7.12297 18.4997 7.12305 18.3672V9.7896C7.12305 8.54203 8.40499 7.82975 9.3033 8.57842L10.1516 9.28577L13.7854 12.3125L17.4191 9.28453L18.2675 8.57842C19.1652 7.83037 20.4477 8.54203 20.4477 9.7896Z" fill="#1B5774"/>
</svg>
