<svg width="137" height="241" viewBox="0 0 137 241" fill="none" xmlns="http://www.w3.org/2000/svg">
<line x1="-49" y1="230.393" x2="118.393" y2="63" stroke="#05F292" stroke-width="15" stroke-linecap="round"/>
<line x1="-41" y1="173.737" x2="120.737" y2="12" stroke="white" stroke-width="23" stroke-linecap="round"/>
<mask id="path-3-inside-1_5_149" fill="white">
<path d="M92.3944 26.521C98.2992 20.7104 107.796 20.7867 113.607 26.6915C119.418 32.5963 119.341 42.0934 113.436 47.904L-9.26641 168.65C-15.1712 174.461 -24.6683 174.385 -30.4789 168.48C-36.2895 162.575 -36.2132 153.078 -30.3085 147.267L92.3944 26.521Z"/>
</mask>
<path d="M103.086 16L124.128 37.383L103.086 16ZM-19.9579 179.171L-41 157.788L-19.9579 179.171ZM-41 157.788L103.086 16L-41 157.788ZM113.607 26.6915C119.805 32.9899 119.724 43.1202 113.425 49.3182L-7.85226 168.662C-14.1507 174.86 -24.281 174.778 -30.4789 168.48C-25.0557 173.991 -15.8726 173.748 -9.96782 167.938L112.735 47.1913C118.64 41.3807 119.03 32.2026 113.607 26.6915Z" fill="white" mask="url(#path-3-inside-1_5_149)"/>
<mask id="path-5-inside-2_5_149" fill="white">
<path d="M106.109 75.103C109.07 72.1613 113.854 72.1761 116.796 75.1363C119.738 78.0964 119.723 82.8809 116.763 85.8226L-3.69325 205.531C-6.65338 208.473 -11.4378 208.458 -14.3796 205.498C-17.3214 202.538 -17.3065 197.754 -14.3464 194.812L106.109 75.103Z"/>
</mask>
<path d="M111.469 69.7765L122.122 80.4961L111.469 69.7765ZM-9.05305 210.858L-19.7061 200.138L-9.05305 210.858ZM-19.7061 200.138L111.469 69.7765L-19.7061 200.138ZM116.796 75.1363C120.127 78.4882 120.11 83.9058 116.758 87.2368L-2.27904 205.536C-5.63092 208.867 -11.0485 208.85 -14.3796 205.498C-11.8271 208.066 -7.35828 207.764 -4.39815 204.822L116.058 85.1133C119.018 82.1715 119.348 77.7047 116.796 75.1363Z" fill="#05F292" mask="url(#path-5-inside-2_5_149)"/>
</svg>
