<svg width="136" height="241" viewBox="0 0 136 241" fill="none" xmlns="http://www.w3.org/2000/svg">
<line x1="186" y1="10.6066" x2="18.6066" y2="178" stroke="#05F292" stroke-width="15" stroke-linecap="round"/>
<line x1="178" y1="67.2635" x2="16.2635" y2="229" stroke="white" stroke-width="23" stroke-linecap="round"/>
<mask id="path-3-inside-1_5_154" fill="white">
<path d="M48.7335 213.65C42.8288 219.461 33.3316 219.385 27.521 213.48C21.7104 207.575 21.7867 198.078 27.6915 192.267L150.394 71.5211C156.299 65.7105 165.796 65.7868 171.607 71.6916C177.417 77.5963 177.341 87.0935 171.436 92.9041L48.7335 213.65Z"/>
</mask>
<path d="M38.042 224.171L17 202.788L38.042 224.171ZM161.086 61.0001L182.128 82.3831L161.086 61.0001ZM182.128 82.3831L38.042 224.171L182.128 82.3831ZM27.521 213.48C21.323 207.181 21.4044 197.051 27.7028 190.853L148.98 71.5097C155.279 65.3117 165.409 65.3932 171.607 71.6916C166.184 66.1805 157.001 66.4232 151.096 72.2338L28.3929 192.98C22.4881 198.791 22.0978 207.969 27.521 213.48Z" fill="white" mask="url(#path-3-inside-1_5_154)"/>
<mask id="path-5-inside-2_5_154" fill="white">
<path d="M33.0129 163.755C30.0527 166.697 25.2683 166.682 22.3265 163.722C19.3848 160.761 19.3996 155.977 22.3598 153.035L142.816 33.3266C145.776 30.3848 150.56 30.3997 153.502 33.3598C156.444 36.3199 156.429 41.1044 153.469 44.0462L33.0129 163.755Z"/>
</mask>
<path d="M27.6531 169.081L17 158.362L27.6531 169.081ZM148.175 28L158.828 38.7196L148.175 28ZM158.828 38.7196L27.6531 169.081L158.828 38.7196ZM22.3265 163.722C18.9954 160.37 19.0123 154.952 22.3642 151.621L141.401 33.3222C144.753 29.9911 150.171 30.0079 153.502 33.3598C150.949 30.7914 146.481 31.0941 143.52 34.0359L23.0647 153.745C20.1045 156.686 19.7741 161.153 22.3265 163.722Z" fill="#05F292" mask="url(#path-5-inside-2_5_154)"/>
</svg>
