<svg width="27" height="27" viewBox="0 0 27 27" fill="none" xmlns="http://www.w3.org/2000/svg">
<circle cx="13.2695" cy="13.2695" r="12.7695" fill="white"/>
<path d="M18.155 8.27283H8.38354C7.71175 8.27283 7.16822 8.83496 7.16822 9.52202L7.16211 17.0171C7.16211 17.7042 7.71175 18.2663 8.38354 18.2663H18.155C18.8268 18.2663 19.3764 17.7042 19.3764 17.0171V9.52202C19.3764 8.83496 18.8268 8.27283 18.155 8.27283ZM17.9107 10.9274L13.5929 13.6881C13.3975 13.813 13.141 13.813 12.9456 13.6881L8.62782 10.9274C8.56659 10.8922 8.51296 10.8447 8.47019 10.7877C8.42742 10.7308 8.3964 10.6655 8.379 10.5959C8.36161 10.5263 8.3582 10.4539 8.36898 10.3829C8.37976 10.3119 8.40451 10.2439 8.44173 10.183C8.47895 10.1221 8.52786 10.0696 8.58552 10.0286C8.64317 9.98755 8.70836 9.95893 8.77714 9.94443C8.84592 9.92993 8.91686 9.92985 8.98567 9.94421C9.05448 9.95856 9.11973 9.98705 9.17747 10.0279L13.2693 12.645L17.361 10.0279C17.4188 9.98705 17.484 9.95856 17.5528 9.94421C17.6216 9.92985 17.6926 9.92993 17.7614 9.94443C17.8301 9.95893 17.8953 9.98755 17.953 10.0286C18.0106 10.0696 18.0596 10.1221 18.0968 10.183C18.134 10.2439 18.1587 10.3119 18.1695 10.3829C18.1803 10.4539 18.1769 10.5263 18.1595 10.5959C18.1421 10.6655 18.1111 10.7308 18.0683 10.7877C18.0255 10.8447 17.9719 10.8922 17.9107 10.9274Z" fill="#1B5774"/>
</svg>
