<svg width="18" height="18" viewBox="0 0 18 18" fill="none" xmlns="http://www.w3.org/2000/svg">
<path d="M16.5 8.99997C16.5024 10.4889 16.0595 11.9446 15.2283 13.18C14.5429 14.2025 13.616 15.0403 12.5296 15.6194C11.4433 16.1984 10.231 16.5009 9 16.5C7.76898 16.5009 6.5567 16.1984 5.47037 15.6194C4.38404 15.0403 3.45715 14.2025 2.77167 13.18C2.11894 12.207 1.70325 11.0946 1.55792 9.93201C1.41259 8.76941 1.54166 7.58893 1.93479 6.48521C2.32792 5.38148 2.97416 4.38521 3.82172 3.57627C4.66928 2.76732 5.69458 2.16819 6.81542 1.82692C7.93626 1.48565 9.12147 1.41172 10.276 1.61106C11.4306 1.8104 12.5224 2.27747 13.4639 2.97482C14.4054 3.67217 15.1705 4.58041 15.6977 5.62672C16.225 6.67304 16.4997 7.82832 16.5 8.99997Z" stroke="white" stroke-width="1.5"/>
<path d="M10.0417 6.49992C10.0417 7.07492 9.575 7.54159 9 7.54159V8.79159C9.60779 8.79159 10.1907 8.55014 10.6205 8.12037C11.0502 7.6906 11.2917 7.10771 11.2917 6.49992H10.0417ZM9 7.54159C8.425 7.54159 7.95834 7.07492 7.95834 6.49992H6.70834C6.70834 7.10771 6.94978 7.6906 7.37955 8.12037C7.80932 8.55014 8.39222 8.79159 9 8.79159V7.54159ZM7.95834 6.49992C7.95834 5.92492 8.425 5.45825 9 5.45825V4.20825C8.39222 4.20825 7.80932 4.44969 7.37955 4.87947C6.94978 5.30924 6.70834 5.89213 6.70834 6.49992H7.95834ZM9 5.45825C9.575 5.45825 10.0417 5.92492 10.0417 6.49992H11.2917C11.2917 5.89213 11.0502 5.30924 10.6205 4.87947C10.1907 4.44969 9.60779 4.20825 9 4.20825V5.45825ZM3.305 13.8799L2.70584 13.7016L2.60834 14.0283L2.83084 14.2866L3.305 13.8799ZM14.695 13.8799L15.17 14.2874L15.3917 14.0291L15.2942 13.7016L14.695 13.8799ZM6.5 12.1249H11.5V10.8749H6.5V12.1249ZM6.5 10.8749C5.64752 10.8747 4.81774 11.1497 4.13412 11.659C3.45049 12.1683 2.94956 12.8847 2.70584 13.7016L3.90417 14.0583C4.07104 13.4995 4.41382 13.0095 4.88151 12.6612C5.34921 12.3128 5.91685 12.1248 6.5 12.1249V10.8749ZM9 15.8749C8.00785 15.8761 7.02726 15.6619 6.12591 15.2473C5.22455 14.8326 4.42389 14.2274 3.77917 13.4733L2.83084 14.2866C3.59289 15.1774 4.53904 15.8932 5.60408 16.3831C6.66912 16.8729 7.82771 17.126 9 17.1249V15.8749ZM11.5 12.1249C12.725 12.1249 13.7625 12.9399 14.0958 14.0583L15.2942 13.7016C15.0505 12.8847 14.5495 12.1683 13.8659 11.659C13.1823 11.1497 12.3525 10.8747 11.5 10.8749V12.1249ZM14.2208 13.4733C13.5761 14.2274 12.7755 14.8326 11.8741 15.2473C10.9727 15.6619 9.99216 15.8761 9 15.8749V17.1249C10.1723 17.126 11.3309 16.8729 12.3959 16.3831C13.461 15.8932 14.408 15.1782 15.17 14.2874L14.2208 13.4733Z" fill="white"/>
</svg>
