<svg width="33" height="34" viewBox="0 0 33 34" fill="none" xmlns="http://www.w3.org/2000/svg">
<path d="M2.75 26.9167V24.0833H16.5V26.9167H2.75ZM2.75 19.8333V17H9.625V19.8333H2.75ZM2.75 12.75V9.91667H9.625V12.75H2.75ZM28.325 26.9167L23.0312 21.4625C22.4813 21.8639 21.8799 22.1652 21.2272 22.3663C20.5746 22.5675 19.9155 22.6676 19.25 22.6667C17.3479 22.6667 15.7268 21.9758 14.3866 20.5941C13.0465 19.2124 12.3759 17.5421 12.375 15.5833C12.3741 13.6246 13.0446 11.9543 14.3866 10.5726C15.7286 9.19086 17.3498 8.5 19.25 8.5C21.1502 8.5 22.7718 9.19086 24.1147 10.5726C25.4577 11.9543 26.1278 13.6246 26.125 15.5833C26.125 16.2681 26.0274 16.9471 25.8321 17.6205C25.6369 18.2939 25.3449 18.9134 24.9562 19.4792L30.25 24.9333L28.325 26.9167ZM19.25 19.8333C20.3958 19.8333 21.3698 19.4201 22.1719 18.5938C22.974 17.7674 23.375 16.7639 23.375 15.5833C23.375 14.4028 22.974 13.3993 22.1719 12.5729C21.3698 11.7465 20.3958 11.3333 19.25 11.3333C18.1042 11.3333 17.1302 11.7465 16.3281 12.5729C15.526 13.3993 15.125 14.4028 15.125 15.5833C15.125 16.7639 15.526 17.7674 16.3281 18.5938C17.1302 19.4201 18.1042 19.8333 19.25 19.8333Z" fill="#05F292"/>
</svg>
