<svg width="16" height="14" viewBox="0 0 16 14" fill="none" xmlns="http://www.w3.org/2000/svg">
<path fill-rule="evenodd" clip-rule="evenodd" d="M13.8327 0.322474C14.0181 0.244467 14.2209 0.217563 14.4202 0.244562C14.6195 0.27156 14.8079 0.351475 14.9658 0.475988C15.1237 0.6005 15.2453 0.765059 15.318 0.952536C15.3907 1.14001 15.4119 1.34355 15.3792 1.54197L13.6782 11.8597C13.5132 12.855 12.4212 13.4257 11.5085 12.93C10.745 12.5152 9.61098 11.8762 8.59098 11.2095C8.08098 10.8757 6.51873 9.80697 6.71073 9.04647C6.87573 8.39622 9.50073 5.95272 11.0007 4.49997C11.5895 3.92922 11.321 3.59997 10.6257 4.12497C8.89923 5.42847 6.12723 7.41072 5.21073 7.96872C4.40223 8.46072 3.98073 8.54472 3.47673 8.46072C2.55723 8.30772 1.70448 8.07072 1.00848 7.78197C0.0679843 7.39197 0.113734 6.09897 1.00773 5.72247L13.8327 0.322474Z" fill="white"/>
</svg>
