<svg width="24" height="26" viewBox="0 0 24 26" fill="none" xmlns="http://www.w3.org/2000/svg">
<path d="M12 0.5C5.376 0.5 0 6.212 0 13.25C0 20.288 5.376 26 12 26C18.624 26 24 20.288 24 13.25C24 6.212 18.624 0.5 12 0.5ZM17.568 9.17C17.388 11.1845 16.608 16.0805 16.212 18.3372C16.044 19.2935 15.708 19.6122 15.396 19.6505C14.7 19.7142 14.172 19.166 13.5 18.6943C12.444 17.9548 11.844 17.4958 10.824 16.7817C9.636 15.953 10.404 15.494 11.088 14.7545C11.268 14.5632 14.34 11.5925 14.4 11.3247C14.4083 11.2842 14.4072 11.2421 14.3968 11.2021C14.3863 11.1621 14.3668 11.1254 14.34 11.0953C14.268 11.0315 14.172 11.057 14.088 11.0697C13.98 11.0953 12.3 12.281 9.024 14.627C8.544 14.9712 8.112 15.1497 7.728 15.137C7.296 15.1242 6.48 14.882 5.868 14.6652C5.112 14.4102 4.524 14.27 4.572 13.8237C4.596 13.5942 4.896 13.3647 5.46 13.1225C8.964 11.5032 11.292 10.4323 12.456 9.92225C15.792 8.44325 16.476 8.18825 16.932 8.18825C17.028 8.18825 17.256 8.21375 17.4 8.34125C17.52 8.44325 17.556 8.5835 17.568 8.6855C17.556 8.762 17.58 8.9915 17.568 9.17Z" fill="white"/>
</svg>
