<svg width="11" height="11" viewBox="0 0 11 11" fill="none" xmlns="http://www.w3.org/2000/svg">
<path d="M11 5.5C11 5.96933 10.4234 6.35617 10.3079 6.78883C10.1888 7.23617 10.4903 7.8595 10.2639 8.25092C10.0338 8.64875 9.34175 8.69642 9.01908 9.01908C8.69642 9.34175 8.64875 10.0338 8.25092 10.2639C7.8595 10.4903 7.23617 10.1888 6.78883 10.3079C6.35617 10.4234 5.96933 11 5.5 11C5.03067 11 4.64383 10.4234 4.21117 10.3079C3.76383 10.1888 3.1405 10.4903 2.74908 10.2639C2.35125 10.0338 2.30358 9.34175 1.98092 9.01908C1.65825 8.69642 0.966167 8.64875 0.736083 8.25092C0.509667 7.8595 0.81125 7.23617 0.692083 6.78883C0.576583 6.35617 0 5.96933 0 5.5C0 5.03067 0.576583 4.64383 0.692083 4.21117C0.81125 3.76383 0.509667 3.1405 0.736083 2.74908C0.966167 2.35125 1.65825 2.30358 1.98092 1.98092C2.30358 1.65825 2.35125 0.966167 2.74908 0.736083C3.1405 0.509667 3.76383 0.81125 4.21117 0.692083C4.64383 0.576583 5.03067 0 5.5 0C5.96933 0 6.35617 0.576583 6.78883 0.692083C7.23617 0.81125 7.8595 0.509667 8.25092 0.736083C8.64875 0.966167 8.69642 1.65825 9.01908 1.98092C9.34175 2.30358 10.0338 2.35125 10.2639 2.74908C10.4903 3.1405 10.1888 3.76383 10.3079 4.21117C10.4234 4.64383 11 5.03067 11 5.5Z" fill="#2568EF"/>
<path d="M7.08923 3.86095L4.99556 5.95462L3.91023 4.8702C3.67465 4.63462 3.2924 4.63462 3.05681 4.8702C2.82123 5.10579 2.82123 5.48804 3.05681 5.72362L4.5794 7.2462C4.80856 7.47537 5.18073 7.47537 5.4099 7.2462L7.94173 4.71437C8.17731 4.47879 8.17731 4.09654 7.94173 3.86095C7.70615 3.62537 7.32481 3.62537 7.08923 3.86095Z" fill="#FFFCEE"/>
</svg>
