<svg width="26" height="26" viewBox="0 0 26 26" fill="none" xmlns="http://www.w3.org/2000/svg">
<path d="M12.75 0.5C19.7989 0.5 25.5 6.20107 25.5 13.25C25.5 20.2989 19.7989 26 12.75 26C5.70107 26 0 20.2989 0 13.25C0 6.20107 5.70107 0.5 12.75 0.5ZM10.4186 19.9711C16.065 19.9711 19.1614 15.29 19.1614 11.2282V10.8275C19.7625 10.3904 20.2907 9.84393 20.6914 9.22464C20.145 9.46143 19.5439 9.62536 18.9246 9.71643C19.5621 9.33393 20.0539 8.73286 20.2725 8.0225C19.6714 8.36857 19.0157 8.62357 18.3236 8.76929C17.7589 8.16821 16.9575 7.80393 16.0832 7.80393C14.3893 7.80393 13.005 9.18821 13.005 10.8821C13.005 11.1189 13.0232 11.3557 13.0961 11.5743C10.5461 11.4468 8.26929 10.2264 6.7575 8.36857C6.5025 8.82393 6.33857 9.35214 6.33857 9.91679C6.33857 10.9732 6.885 11.9204 7.70464 12.4668C7.19464 12.4668 6.72107 12.3211 6.32036 12.0843V12.1207C6.32036 13.6143 7.37679 14.8529 8.77929 15.1443C8.52429 15.2171 8.25107 15.2536 7.97786 15.2536C7.7775 15.2536 7.59536 15.2354 7.395 15.1989C7.7775 16.4193 8.925 17.3118 10.2546 17.33C9.19822 18.1496 7.86857 18.6414 6.42964 18.6414C6.17464 18.6414 5.93786 18.6414 5.70107 18.605C7.04893 19.4793 8.67 19.9893 10.4004 19.9893" fill="white"/>
</svg>
